<?xml version="1.0" encoding="utf-8"?>
<!-- Generator: Adobe Illustrator 25.2.0, SVG Export Plug-In . SVG Version: 6.00 Build 0)  -->
<svg version="1.1" id="Ebene_1" xmlns="http://www.w3.org/2000/svg" xmlns:xlink="http://www.w3.org/1999/xlink" x="0px" y="0px"
	 viewBox="0 0 459.7 474.2" style="enable-background:new 0 0 459.7 474.2;" xml:space="preserve">
<style type="text/css">
	.st0{fill:#FFFFFF;}
</style>
<g id="Ebene_2_1_">
	<g id="Ebene_1-2">
		<path class="st0" d="M374.3,160.7V61.9c0-12.6-10.2-22.8-22.8-22.8H245.1v15.2h106.4c3.9-0.3,7.3,2.7,7.6,6.7c0,0.3,0,0.6,0,0.9
			v98.8h-30.4l38,60.8l38-60.8H374.3z"/>
		<path class="st0" d="M100.7,343.1c-3.9,0.3-7.3-2.7-7.6-6.7c0-0.3,0-0.6,0-0.9v-91.2h30.4l-38-60.8l-38,60.8h30.4v91.2
			c0,12.6,10.2,22.8,22.8,22.8h159.6v-15.2H100.7z"/>
		<path class="st0" d="M229.1,77.8c-3.6-19.7-22-33.1-41.8-30.4c-9.3-22.9-31.5-37.9-56.2-38c-22,0-41.8,15.2-52.4,30.4h-0.8
			c-21,0-38,17-38,38v0.8c-21.9,3.1-38.1,22-38,44.1c0,25.2,20.4,45.6,45.6,45.6c0,0,0,0,0,0h174.8c25.2,0,45.6-20.4,45.6-45.6
			C267.9,100.1,251.4,81,229.1,77.8z"/>
		<path class="st0" d="M453.3,289.1l-30.4-42.6c-4.1-6-10.9-9.7-18.2-9.9H298.3c-12.6,0-22.8,10.2-22.8,22.8l0,0v182.4
			c0,12.6,10.2,22.8,22.8,22.8h136.8c12.6,0,22.8-10.2,22.8-22.8V302C457.9,297.3,456.3,292.8,453.3,289.1z M350,399.3l-12.2,9.9
			l-34.2-43.3l34.2-42.6l12.2,9.9l-26.6,32.7L350,399.3z M366.7,405.4l-15.2-3l15.2-76l15.2,3L366.7,405.4z M395.6,408.4l-12.2-9.9
			l26.6-33.4l-26.6-33.4l12.2-9.9l34.2,42.6L395.6,408.4z M442.7,305.1h-22.8c-12.6,0-22.8-10.2-22.8-22.8v-30.4h15.2v30.4
			c-0.3,3.9,2.7,7.3,6.7,7.6c0.3,0,0.6,0,0.9,0h22.8V305.1z"/>
	</g>
</g>
</svg>
