<?xml version="1.0" encoding="utf-8"?>
<!-- Generator: Adobe Illustrator 25.2.0, SVG Export Plug-In . SVG Version: 6.00 Build 0)  -->
<svg version="1.1" id="Ebene_1" xmlns="http://www.w3.org/2000/svg" xmlns:xlink="http://www.w3.org/1999/xlink" x="0px" y="0px"
	 viewBox="0 0 459.7 474.2" style="enable-background:new 0 0 459.7 474.2;" xml:space="preserve">
<style type="text/css">
	.st0{fill:none;}
	.st1{fill:#FFFFFF;}
</style>
<g>
	<rect y="-0.1" class="st0" width="460" height="474"/>
	<g id="Ebene_2_1_">
		<g id="Ebene_1-2">
			<path class="st1" d="M358.6,165.7V75.1c0-11.6-9.4-20.9-20.9-20.9h-97.6v13.9h97.6c3.6-0.3,6.7,2.5,7,6.1c0,0.3,0,0.6,0,0.8v90.7
				h-27.9l34.9,55.8l34.9-55.8L358.6,165.7L358.6,165.7z"/>
			<path class="st1" d="M107.6,333.1c-3.6,0.3-6.7-2.5-7-6.1c0-0.3,0-0.6,0-0.8v-83.7h27.9l-34.9-55.8l-34.9,55.8h27.9v83.7
				c0,11.6,9.4,20.9,20.9,20.9H254v-13.9L107.6,333.1L107.6,333.1z"/>
			<path class="st1" d="M225.4,89.7c-3.3-18.1-20.2-30.4-38.4-27.9c-8.5-21-28.9-34.8-51.6-34.9c-20.2,0-38.4,13.9-48.1,27.9h-0.7
				c-19.3,0-34.9,15.6-34.9,34.9v0.7c-20.1,2.8-35,20.2-34.9,40.5c0,23.1,18.7,41.8,41.8,41.8l0,0h160.4c23.1,0,41.8-18.7,41.8-41.8
				C261,110.1,245.9,92.6,225.4,89.7z"/>
			<path class="st1" d="M431.1,283.6l-27.9-39.1c-3.8-5.5-10-8.9-16.7-9.1h-97.6c-11.6,0-20.9,9.4-20.9,20.9l0,0v167.4
				c0,11.6,9.4,20.9,20.9,20.9h125.5c11.6,0,20.9-9.4,20.9-20.9V295.4C435.3,291.1,433.9,286.9,431.1,283.6z M336.3,384.7l-11.2,9.1
				L293.8,354l31.4-39.1l11.2,9.1l-24.4,30L336.3,384.7z M351.7,390.3l-13.9-2.8l13.9-69.7l13.9,2.8L351.7,390.3z M378.2,393
				l-11.2-9.1l24.4-30.6L367,322.6l11.2-9.1l31.4,39.1L378.2,393z M421.4,298.2h-20.9c-11.6,0-20.9-9.4-20.9-20.9v-27.9h13.9v27.9
				c-0.3,3.6,2.5,6.7,6.1,7c0.3,0,0.6,0,0.8,0h20.9L421.4,298.2L421.4,298.2z"/>
		</g>
	</g>
</g>
</svg>
