<?xml version="1.0" encoding="utf-8"?>
<!-- Generator: Adobe Illustrator 25.2.0, SVG Export Plug-In . SVG Version: 6.00 Build 0)  -->
<svg version="1.1" id="Ebene_1" xmlns="http://www.w3.org/2000/svg" xmlns:xlink="http://www.w3.org/1999/xlink" x="0px" y="0px"
	 viewBox="0 0 459.7 474.2" style="enable-background:new 0 0 459.7 474.2;" xml:space="preserve">
<style type="text/css">
	.st0{fill:#FFFFFF;}
	.st1{fill:none;}
</style>
<g>
	<g id="Ebene_2_1_">
		<g id="Ebene_1-2">
			<path class="st0" d="M106.9,291.6c-1.2,3.8-4.7,6.3-8.6,6.3c-0.9,0.1-1.9-0.1-2.7-0.5c-17.7-5.4-30.3-24-30.3-44.8V144
				l-39.5-19.4c-4.5-2.2-6.4-7.6-4.2-12.1c0.9-1.8,2.3-3.3,4.2-4.2l39.4-19.5v-9.9c0-25.8,19-46.6,41.7-46.6h239
				c23.1,0,41.7,20.8,41.7,46.6v128.6c0,5-4.1,9-9,9s-9-4.1-9-9V78.9c0-15.9-10.4-28.5-23.5-28.5H106.9c-12.7,0-23.5,12.7-23.5,28.5
				v15.4c0.2,3.5-1.8,6.7-5,8.1l-28,14.1l28,14.1c3.2,1.4,5.1,4.7,5,8.1v114c0,13.2,7.2,24.4,17.7,27.6c4.6,1.3,7.4,6,6.1,10.5
				C107.1,291.2,107,291.4,106.9,291.6z M418.3,340.9c1.8,9.9,3.2,31.2-12.3,43.9c0.3,1.8,0.5,3.6,0.5,5.4
				c0.3,9.3-2.6,18.4-8.1,25.8c-13.6,17.2-42.1,21.3-62,22.6c-5.9,0.5-12.7,0.5-19.5,0.5c-23.5,0-52-2.3-77.4-4.5
				c-16.8-1.4-32.1-2.7-45.3-3.2c-4,2-8.3,3.1-12.7,3.2h-34c-15,0-27.1-12.2-27.1-27.1V304.7c0-15,12.2-27.1,27.1-27.1h34
				c5.4,0.1,10.7,1.7,15.4,4.5l5.4-5.4c7.3-7.6,14.1-15.6,20.4-24c9.3-13.8,17.6-28.1,24.9-43l0.5-0.5c6.8-12.5,12.4-25.5,17.2-38.9
				c1.5-5,2.7-10.2,3.6-15.4c1-8.7,3.4-17,7.2-24.9c2.3-4.5,8.1-10.8,24.9-4.5c9.6,3.7,17.9,10.4,23.5,19
				c11.4,18.6,4.5,42.1-0.5,58.9v0.5c-0.5,2.3-1.4,4.1-1.8,6.3c-1.9,5.8-3.4,11.6-4.5,17.7c-0.5,1.4-0.5,2.7-0.9,4.5
				c-1,4.3-1.7,8.7-2.3,13.2c4.9-0.9,9.7-2.2,14.5-3.6c1.9-0.6,3.9-1.1,5.9-1.4c23.5-4.1,52.9-6.8,71.9,7.2
				c17.7,13.6,18.1,31.2,13.2,43.5c5.7,7.6,8.8,16.8,9,26.2C428,326.2,424.2,334.4,418.3,340.9z M410.2,316.5
				c-0.6-6.8-3.5-13.2-8.1-18.1c-3.2-3.2-3.5-8.2-0.9-11.8c2.3-3.2,8.1-14.1-5.4-24.9c-15-11.4-46.2-5.9-58-4.1
				c-1.4,0.2-2.7,0.5-4.1,0.9c-17.7,5-25.8,6.3-31.6,3.2c-2.4-1.4-4.2-3.6-5-6.3c-2.3-8.6,0-19,1.8-27.6c0.5-1.4,0.5-2.7,0.9-4.1
				c1.4-6.4,3-12.8,5-19c0.5-2.3,1.4-4.1,1.8-5.9v-0.5c4.1-14.5,9.5-32.5,2.3-44.4c-3.5-5.3-8.6-9.4-14.5-11.8
				c-1.3-0.4-2.4-0.8-3.6-1.4c-1.9,5.6-3.3,11.4-4.1,17.2c-0.9,6.2-2.3,12.3-4.5,18.1c-5.1,14.2-11.2,27.9-18.1,41.2l-0.5,0.5
				c-7.4,15.8-16.2,30.9-26.2,45.3c-6.8,9-14.1,17.6-21.7,25.8c-2.7,2.7-5,5.4-7.7,8.1c0.7,2.3,1.1,4.8,0.9,7.2V407
				c-0.1,2.3-0.4,4.6-0.9,6.8c10.4,0.5,21.3,1.4,33.1,2.7c32.1,2.7,68.8,5.4,94.1,3.6c9.5-0.9,39.4-3.2,49.3-15.9
				c2.8-4.3,4.2-9.4,4.1-14.5c0-0.9-0.5-2.3-0.5-4.1c-0.9-6.8-1.4-11.4,4.1-14.1c14.1-7.7,7.2-31.6,7.2-31.6c-1-3.2,0.1-6.9,2.7-9
				C406.9,327.8,410,322.4,410.2,316.5z M147.6,416.6h34c5,0,9-4.1,9-9V304.8c0-5-4.1-9-9-9h-34c-5,0-9,4.1-9,9v102.8
				C138.5,412.5,142.6,416.6,147.6,416.6z"/>
		</g>
	</g>
	<rect y="-0.1" class="st1" width="460" height="474"/>
</g>
</svg>
