<?xml version="1.0" encoding="utf-8"?>
<!-- Generator: Adobe Illustrator 25.2.0, SVG Export Plug-In . SVG Version: 6.00 Build 0)  -->
<svg version="1.1" id="Ebene_1" xmlns="http://www.w3.org/2000/svg" xmlns:xlink="http://www.w3.org/1999/xlink" x="0px" y="0px"
	 viewBox="0 0 459.7 474.2" style="enable-background:new 0 0 459.7 474.2;" xml:space="preserve">
<style type="text/css">
	.st0{fill:#FFFFFF;}
</style>
<g id="Ebene_2_1_">
	<g id="Ebene_1-2">
		<path class="st0" d="M99.3,299.5c-1.3,4.2-5.2,7-9.5,7c-1,0.1-2.1-0.1-3-0.5c-19.6-6-33.6-26.6-33.6-49.7V135.8L9.4,114.3
			c-5-2.4-7.1-8.4-4.7-13.4c1-2,2.6-3.7,4.7-4.7l43.7-21.6v-11c0-28.6,21.1-51.7,46.2-51.7h265.1c25.6,0,46.2,23.1,46.2,51.7v142.6
			c0,5.5-4.5,10-10,10s-10-4.5-10-10V63.5c0-17.6-11.5-31.6-26.1-31.6H99.3c-14.1,0-26.1,14.1-26.1,31.6v17.1c0.2,3.9-2,7.4-5.5,9
			l-31.1,15.6l31.1,15.6c3.5,1.6,5.7,5.2,5.5,9v126.5c0,14.6,8,27.1,19.6,30.6c5.1,1.4,8.2,6.6,6.8,11.7
			C99.5,299,99.4,299.3,99.3,299.5z M444.7,354.2c2,11,3.5,34.6-13.6,48.7c0.3,2,0.5,4,0.5,6c0.3,10.3-2.9,20.4-9,28.6
			c-15.1,19.1-46.7,23.6-68.8,25.1c-6.5,0.5-14.1,0.5-21.6,0.5c-26.1,0-57.7-2.5-85.9-5c-18.6-1.5-35.6-3-50.2-3.5
			c-4.4,2.2-9.2,3.4-14.1,3.5h-37.7c-16.6,0-30.1-13.5-30.1-30.1v-114c0-16.6,13.5-30.1,30.1-30.1h37.7c6,0.1,11.9,1.9,17.1,5l6-6
			c8.1-8.4,15.6-17.3,22.6-26.6c10.3-15.3,19.5-31.2,27.6-47.7l0.5-0.5c7.5-13.9,13.8-28.3,19.1-43.2c1.7-5.6,3-11.3,4-17.1
			c1.1-9.6,3.8-18.9,8-27.6c2.5-5,9-12,27.6-5c10.7,4.1,19.8,11.5,26.1,21.1c12.6,20.6,5,46.7-0.5,65.3v0.5c-0.5,2.5-1.5,4.5-2,7
			c-2.1,6.4-3.8,12.9-5,19.6c-0.5,1.5-0.5,3-1,5c-1.1,4.8-1.9,9.7-2.5,14.6c5.4-1,10.8-2.4,16.1-4c2.1-0.7,4.3-1.2,6.5-1.5
			c26.1-4.5,58.7-7.5,79.8,8c19.6,15.1,20.1,34.6,14.6,48.2c6.3,8.4,9.8,18.6,10,29.1C455.5,337.9,451.3,347,444.7,354.2z
			 M435.7,327.1c-0.7-7.5-3.9-14.6-9-20.1c-3.5-3.5-3.9-9.1-1-13.1c2.5-3.5,9-15.6-6-27.6c-16.6-12.6-51.2-6.5-64.3-4.5
			c-1.5,0.2-3,0.5-4.5,1c-19.6,5.5-28.6,7-35.1,3.5c-2.7-1.5-4.7-4-5.5-7c-2.5-9.5,0-21.1,2-30.6c0.5-1.5,0.5-3,1-4.5
			c1.5-7.1,3.3-14.2,5.5-21.1c0.5-2.5,1.5-4.5,2-6.5v-0.5c4.5-16.1,10.5-36.1,2.5-49.2c-3.9-5.9-9.5-10.4-16.1-13.1
			c-1.4-0.4-2.7-0.9-4-1.5c-2.1,6.2-3.7,12.6-4.5,19.1c-1,6.9-2.6,13.6-5,20.1c-5.7,15.7-12.4,30.9-20.1,45.7l-0.5,0.5
			c-8.2,17.5-18,34.3-29.1,50.2c-7.5,10-15.6,19.5-24.1,28.6c-3,3-5.5,6-8.5,9c0.8,2.6,1.2,5.3,1,8v114c-0.1,2.5-0.4,5.1-1,7.5
			c11.5,0.5,23.6,1.5,36.7,3c35.6,3,76.3,6,104.4,4c10.5-1,43.7-3.5,54.7-17.6c3.1-4.8,4.7-10.4,4.5-16.1c0-1-0.5-2.5-0.5-4.5
			c-1-7.5-1.5-12.6,4.5-15.6c15.6-8.5,8-35.1,8-35.1c-1.1-3.6,0.1-7.6,3-10C432.1,339.6,435.5,333.6,435.7,327.1z M144.5,438.1h37.7
			c5.5,0,10-4.5,10-10v-114c0-5.5-4.5-10-10-10h-37.7c-5.5,0-10,4.5-10,10v114C134.4,433.6,138.9,438.1,144.5,438.1z"/>
	</g>
</g>
</svg>
