<svg xmlns="http://www.w3.org/2000/svg" viewBox="0 0 646.3 218.64"><defs><style>.cls-1{fill:#141413;}.cls-2,.cls-3{fill:#589b3d;}.cls-2{stroke:#4b914b;stroke-width:0.3px;}.cls-4{fill:#fff;}</style></defs><g id="Ebene_2" data-name="Ebene 2"><g id="Ebene_1-2" data-name="Ebene 1"><polygon class="cls-1" points="489.3 0.15 482 50.82 638.69 50.82 625.53 25.49 645.99 0.15 489.3 0.15"/><polygon class="cls-2" points="489.3 0.15 482 50.82 638.69 50.82 625.53 25.49 645.99 0.15 489.3 0.15"/><path class="cls-3" d="M390.51,43a2.1,2.1,0,0,1,2.23,2.23v122a1.17,1.17,0,0,0,1.33,1.33h8.68a2.1,2.1,0,0,1,2.23,2.23v21.37a2.11,2.11,0,0,1-2.23,2.23H364a2.11,2.11,0,0,1-2.22-2.23v-7.79h-.23c-5.12,7.57-14,12.46-28,12.46-18.48,0-30.95-8.9-36.51-25.82-2.67-8.46-3.78-16.69-3.78-30.49,0-14,1.11-22.26,3.78-30.5,5.56-17.14,18-25.82,36.51-25.82,14,0,22.92,4.9,28,12.47h.23V70.15a1.19,1.19,0,0,0-1.34-1.34h-8.68a2.1,2.1,0,0,1-2.23-2.22V45.22A2.1,2.1,0,0,1,351.78,43Zm-63.88,79c-1.34,4.23-2,8.91-2,18.48s.67,14.24,2,18.47c2.44,7.79,8.23,11.58,16.47,11.58,8.46,0,14.24-3.79,16.69-11.58,1.34-4.23,2-8.9,2-18.47s-.67-14.25-2-18.48c-2.45-7.57-8.23-11.57-16.69-11.57C334.86,110.44,329.07,114.44,326.63,122Z"/><path class="cls-3" d="M519.83,86.62a2.1,2.1,0,0,1,2.23,2.23V167.2a1.18,1.18,0,0,0,1.34,1.33h8.68a2.1,2.1,0,0,1,2.22,2.23v21.37a2.11,2.11,0,0,1-2.22,2.23H493.35a2.11,2.11,0,0,1-2.23-2.23v-7.79h-.22c-5.79,7.34-13.58,12.46-28,12.46C439,196.8,427,180.11,427,156.74v-43a1.18,1.18,0,0,0-1.33-1.34H417a2.1,2.1,0,0,1-2.23-2.23V88.85A2.1,2.1,0,0,1,417,86.62h38.73A2.1,2.1,0,0,1,458,88.85v61.88c0,11.79,5.35,19.59,16.48,19.59,10.46,0,16.69-7.8,16.69-19.59V113.78a1.18,1.18,0,0,0-1.33-1.34H481.1a2.1,2.1,0,0,1-2.22-2.23V88.85a2.1,2.1,0,0,1,2.22-2.23Z"/><rect class="cls-3" x="255.7" y="17.48" width="8.25" height="201.16"/><path class="cls-3" d="M8.77,98.73a10.6,10.6,0,0,1-8.09-3l2.94-2.94a6.44,6.44,0,0,0,5,2C12.48,94.79,14,92,14,89V86a7.06,7.06,0,0,1-5.92,2.62,7.59,7.59,0,0,1-5.47-2C.36,84.39,0,81.18,0,77.29S.36,70.2,2.58,68a7.69,7.69,0,0,1,5.51-2,7,7,0,0,1,6,2.71V66.26h4.47V89.05C18.58,94.66,14.87,98.73,8.77,98.73Zm.54-28.62c-4.16,0-4.7,3.57-4.7,7.18s.54,7.19,4.7,7.19S14,80.91,14,77.29,13.47,70.11,9.31,70.11Z"/><path class="cls-3" d="M29.3,79.06c0,3.93,2.08,6.42,5.83,6.42a6.87,6.87,0,0,0,5.56-2.35l2.94,2.76A10.76,10.76,0,0,1,35,89.46c-5.74,0-10.31-3-10.31-11.76,0-7.41,3.84-11.71,9.72-11.71,6.15,0,9.72,4.52,9.72,11v2ZM39,72.73a4.72,4.72,0,0,0-4.52-2.9,4.78,4.78,0,0,0-4.56,2.9,7.07,7.07,0,0,0-.59,3.12H39.61A7.19,7.19,0,0,0,39,72.73Z"/><path class="cls-3" d="M78.22,89.19v-14c0-3.58-2-5.11-4.61-5.11A4.54,4.54,0,0,0,68.86,75v14.2H64.25v-14c0-3.58-2-5.11-4.61-5.11s-4.75,1.58-4.75,5.11v14H50.28V66.26H54.8v2.31A8.32,8.32,0,0,1,60.9,66a7.31,7.31,0,0,1,6.51,3.35A8.72,8.72,0,0,1,74.6,66a8.32,8.32,0,0,1,5.79,2.08,8.54,8.54,0,0,1,2.44,6.47V89.19Z"/><path class="cls-3" d="M93.32,79.06c0,3.93,2.08,6.42,5.83,6.42a6.85,6.85,0,0,0,5.56-2.35l2.94,2.76a10.75,10.75,0,0,1-8.59,3.57c-5.74,0-10.31-3-10.31-11.76C88.75,70.29,92.6,66,98.48,66c6.14,0,9.72,4.52,9.72,11v2ZM103,72.73a4.73,4.73,0,0,0-4.52-2.9,4.79,4.79,0,0,0-4.57,2.9,7.36,7.36,0,0,0-.59,3.12h10.31A7.35,7.35,0,0,0,103,72.73Z"/><path class="cls-3" d="M114.16,61.74V56.86h4.89v4.88Zm.14,27.45V66.26h4.61V89.19Z"/><path class="cls-3" d="M140.21,89.19v-14c0-3.58-2-5.11-4.61-5.11s-4.75,1.58-4.75,5.11v14h-4.61V66.26h4.52v2.31a8.19,8.19,0,0,1,6.1-2.58,7.94,7.94,0,0,1,5.65,2.08c1.77,1.72,2.31,3.89,2.31,6.47V89.19Z"/><path class="cls-3" d="M159.33,89.46c-3.75,0-6.91-.64-9.63-3.3l3-3a8.88,8.88,0,0,0,6.6,2.39c2.81,0,5-1,5-3.16,0-1.54-.86-2.53-3.07-2.71l-3.67-.32C153.32,79,150.83,77,150.83,73c0-4.48,3.85-7,8.64-7,3.43,0,6.37.73,8.5,2.58l-2.9,2.94a8.65,8.65,0,0,0-5.65-1.68c-2.76,0-4.16,1.23-4.16,2.94,0,1.36.73,2.4,3.17,2.63l3.61.31c4.3.36,6.83,2.4,6.83,6.47C168.87,87,164.8,89.46,159.33,89.46Z"/><path class="cls-3" d="M186.82,89.19V87.11a7.54,7.54,0,0,1-6.1,2.35c-2.85,0-4.75-.68-6.15-2.08a7,7,0,0,1-1.81-4.93c0-3.84,2.67-6.6,7.91-6.6h6.06V74.22c0-2.89-1.45-4.29-5-4.29-2.53,0-3.75.58-5,2.21l-3-2.85c2.17-2.53,4.43-3.3,8.22-3.3,6.29,0,9.45,2.67,9.45,7.87V89.19Zm-.09-10.13h-5.38c-2.71,0-4.11,1.22-4.11,3.3s1.31,3.25,4.2,3.25c1.77,0,3.08-.13,4.3-1.31a4.6,4.6,0,0,0,1-3.39Z"/><path class="cls-3" d="M226.38,89.19v-14c0-3.58-2-5.11-4.61-5.11A4.54,4.54,0,0,0,217,75v14.2h-4.61v-14c0-3.58-2-5.11-4.61-5.11s-4.75,1.58-4.75,5.11v14h-4.61V66.26H203v2.31A8.32,8.32,0,0,1,209.07,66a7.32,7.32,0,0,1,6.51,3.35A8.71,8.71,0,0,1,222.77,66a8.27,8.27,0,0,1,5.78,2.08A8.51,8.51,0,0,1,231,74.54V89.19Z"/><path class="cls-3" d="M126.6,110.44v-4.88h4.88v4.88Zm.14,27.44V115h4.61v22.92Z"/><path class="cls-3" d="M151.83,137.88v-2.44a7.05,7.05,0,0,1-6.06,2.71,7.92,7.92,0,0,1-5.61-2c-2.3-2.31-2.57-6.24-2.57-9.72s.27-7.37,2.57-9.68a7.86,7.86,0,0,1,5.57-2,7.09,7.09,0,0,1,6,2.58V105.69h4.61v32.19ZM147,118.8c-4.16,0-4.79,3.53-4.79,7.6S142.83,134,147,134s4.75-3.57,4.75-7.64S151.15,118.8,147,118.8Z"/><path class="cls-3" d="M167.07,127.76c0,3.93,2.08,6.42,5.83,6.42a6.84,6.84,0,0,0,5.56-2.36l2.94,2.76a10.76,10.76,0,0,1-8.59,3.57c-5.74,0-10.31-3-10.31-11.75,0-7.42,3.84-11.71,9.72-11.71,6.15,0,9.72,4.52,9.72,11v2Zm9.67-6.33a4.72,4.72,0,0,0-4.52-2.9,4.8,4.8,0,0,0-4.57,2.9,7.19,7.19,0,0,0-.58,3.12h10.31A7.31,7.31,0,0,0,176.74,121.43Z"/><path class="cls-3" d="M191.44,127.76c0,3.93,2.08,6.42,5.83,6.42a6.84,6.84,0,0,0,5.56-2.36l2.94,2.76a10.76,10.76,0,0,1-8.59,3.57c-5.74,0-10.31-3-10.31-11.75,0-7.42,3.84-11.71,9.72-11.71,6.15,0,9.72,4.52,9.72,11v2Zm9.67-6.33a4.72,4.72,0,0,0-4.52-2.9,4.8,4.8,0,0,0-4.57,2.9,7.19,7.19,0,0,0-.58,3.12h10.3A7.17,7.17,0,0,0,201.11,121.43Z"/><path class="cls-3" d="M226.39,137.88v-14c0-3.57-2-5.11-4.62-5.11s-4.74,1.59-4.74,5.11v14h-4.61V115h4.52v2.31a8.18,8.18,0,0,1,6.1-2.58,7.94,7.94,0,0,1,5.65,2.08c1.77,1.72,2.31,3.89,2.31,6.46v14.65Z"/><path class="cls-3" d="M72.71,184.81a7.93,7.93,0,0,1-5.61,2A7.05,7.05,0,0,1,61,184.14v2.44H56.52V154.39h4.61V166a7.1,7.1,0,0,1,6-2.58,7.82,7.82,0,0,1,5.56,2c2.3,2.3,2.57,6.19,2.57,9.67S75,182.51,72.71,184.81ZM65.92,167.5c-4.15,0-4.79,3.53-4.79,7.59s.64,7.65,4.79,7.65,4.75-3.58,4.75-7.65S70.08,167.5,65.92,167.5Z"/><path class="cls-3" d="M84.92,176.45c0,3.93,2.07,6.42,5.83,6.42a6.85,6.85,0,0,0,5.56-2.35l2.94,2.76a10.76,10.76,0,0,1-8.59,3.57c-5.74,0-10.31-3-10.31-11.76,0-7.41,3.84-11.71,9.72-11.71,6.15,0,9.72,4.53,9.72,11v2Zm9.67-6.33a4.71,4.71,0,0,0-4.52-2.89,4.79,4.79,0,0,0-4.57,2.89,7.22,7.22,0,0,0-.58,3.12h10.3A7.2,7.2,0,0,0,94.59,170.12Z"/><path class="cls-3" d="M128,186.58h-3.93l-5.38-16-5.34,16h-4l-7.1-22.92h4.88l4.43,16.14,5.34-16.14h3.57l5.29,16.14,4.43-16.14h4.93Z"/><path class="cls-3" d="M142.25,176.45c0,3.93,2.08,6.42,5.83,6.42a6.85,6.85,0,0,0,5.56-2.35l2.94,2.76a10.76,10.76,0,0,1-8.59,3.57c-5.74,0-10.31-3-10.31-11.76,0-7.41,3.84-11.71,9.72-11.71,6.15,0,9.72,4.53,9.72,11v2Zm9.67-6.33a4.71,4.71,0,0,0-4.52-2.89,4.79,4.79,0,0,0-4.57,2.89,7.22,7.22,0,0,0-.58,3.12h10.3A7.2,7.2,0,0,0,151.92,170.12Z"/><path class="cls-3" d="M170.91,196.12a10.6,10.6,0,0,1-8.09-3l2.94-2.94a6.41,6.41,0,0,0,5,2c3.89,0,5.38-2.75,5.38-5.83v-2.94a7.07,7.07,0,0,1-5.92,2.63,7.56,7.56,0,0,1-5.47-2c-2.22-2.21-2.58-5.42-2.58-9.31s.36-7.1,2.58-9.32a7.69,7.69,0,0,1,5.51-2,7,7,0,0,1,6,2.72v-2.44h4.47v22.78C180.72,192.05,177,196.12,170.91,196.12Zm.54-28.62c-4.16,0-4.7,3.57-4.7,7.19s.54,7.19,4.7,7.19,4.66-3.58,4.66-7.19S175.61,167.5,171.45,167.5Z"/><path class="cls-3" d="M191.44,176.45c0,3.93,2.08,6.42,5.83,6.42a6.84,6.84,0,0,0,5.56-2.35l2.94,2.76a10.76,10.76,0,0,1-8.59,3.57c-5.74,0-10.31-3-10.31-11.76,0-7.41,3.84-11.71,9.72-11.71,6.15,0,9.72,4.53,9.72,11v2Zm9.67-6.33a4.71,4.71,0,0,0-4.52-2.89,4.77,4.77,0,0,0-4.56,2.89,7.07,7.07,0,0,0-.59,3.12h10.31A7.19,7.19,0,0,0,201.11,170.12Z"/><path class="cls-3" d="M226.39,186.58v-14c0-3.57-2-5.11-4.61-5.11s-4.75,1.58-4.75,5.11v14h-4.61V163.66h4.52V166a8.19,8.19,0,0,1,6.1-2.58,7.94,7.94,0,0,1,5.65,2.08c1.77,1.72,2.31,3.89,2.31,6.47v14.65Z"/><path class="cls-4" d="M512.37,21.29a25.33,25.33,0,0,1-1.95,9.18,6.76,6.76,0,0,1-6.62,4.13c-2.45,0-3.86-1-4.4-2.26h0l-.72,4.29c0,.15,0,.23.19.23h1.34c.23,0,.34.15.3.38l-.61,3.44a.41.41,0,0,1-.42.38h-8.22a.29.29,0,0,1-.31-.38l.61-3.44a.41.41,0,0,1,.42-.38h1.3a.29.29,0,0,0,.31-.27l2.91-16.45c0-.19,0-.27-.19-.27h-1.34a.29.29,0,0,1-.31-.38l.61-3.44a.46.46,0,0,1,.46-.39h6.24c.23,0,.34.16.3.39L502,17.46h0a6.22,6.22,0,0,1,5.09-2.22C510.65,15.24,512.37,17.54,512.37,21.29Zm-10.79.34a19.56,19.56,0,0,0-1.18,5.85c0,1.8.68,2.8,2.44,2.8A3.3,3.3,0,0,0,506,28.17a19.45,19.45,0,0,0,1.19-5.81c0-1.84-.69-2.8-2.41-2.8A3.33,3.33,0,0,0,501.58,21.63Z"/><path class="cls-4" d="M530.77,15.59a.37.37,0,0,1,.31.46l-.77,4.13c0,.23-.19.3-.49.26a11.23,11.23,0,0,0-2.11-.26c-2.25,0-3.86,1.41-4.36,4.28l-.92,5.28c0,.15,0,.23.19.23h1.57a.29.29,0,0,1,.31.38l-.61,3.45a.42.42,0,0,1-.42.38H515a.29.29,0,0,1-.3-.38l.61-3.45a.41.41,0,0,1,.42-.38h1.34a.29.29,0,0,0,.3-.23l1.69-9.6c0-.19,0-.27-.19-.27h-1.34a.29.29,0,0,1-.31-.38l.61-3.44a.42.42,0,0,1,.42-.39h6.32a.3.3,0,0,1,.3.39l-.3,1.79h0a5.73,5.73,0,0,1,4.71-2.41A4.71,4.71,0,0,1,530.77,15.59Z"/><path class="cls-4" d="M549.86,21.9a20.66,20.66,0,0,1-1.64,7.76c-1.76,3.52-4.67,4.94-8.53,4.94-4.25,0-6.93-2.41-6.93-6.66a20.35,20.35,0,0,1,1.65-7.76c1.72-3.52,4.67-4.94,8.53-4.94C547.18,15.24,549.86,17.61,549.86,21.9Zm-10.75-.23a19.8,19.8,0,0,0-1.22,5.78c0,1.79.69,2.83,2.49,2.83a3.3,3.3,0,0,0,3.13-2.11,18.6,18.6,0,0,0,1.23-5.77c0-1.84-.69-2.84-2.45-2.84A3.31,3.31,0,0,0,539.11,21.67Z"/><path class="cls-4" d="M561.88,15.66c.23,0,.34.16.3.39l-3.25,18.43c-.92,5.21-2.94,6.58-7.76,6.58H550a.27.27,0,0,1-.27-.38l.61-3.56a.44.44,0,0,1,.42-.38h.65c1.46,0,2.11-.46,2.41-2.18l2.53-14.42c0-.19,0-.27-.19-.27h-1.34a.29.29,0,0,1-.31-.38l.61-3.44a.46.46,0,0,1,.46-.39Zm1.3-7.5c.23,0,.34.16.3.39l-.65,3.63a.41.41,0,0,1-.42.38h-4.36c-.23,0-.34-.15-.3-.38l.65-3.63a.42.42,0,0,1,.42-.39Z"/><path class="cls-4" d="M582.54,21.75a24.39,24.39,0,0,1-.5,4.32.45.45,0,0,1-.46.38H570.79a.26.26,0,0,0-.27.23,3.63,3.63,0,0,0,0,.57c0,2.34,1.18,3.22,3.32,3.22a7.48,7.48,0,0,0,4.4-1.76.44.44,0,0,1,.65,0l1.84,2.22a.43.43,0,0,1,0,.61,11.27,11.27,0,0,1-7.92,3.06c-4.51,0-7.11-2.37-7.11-6.77a18.68,18.68,0,0,1,1.53-7.5c1.6-3.29,4.32-5.09,8.57-5.09C579.63,15.24,582.54,17.5,582.54,21.75Zm-10.83-.5a5,5,0,0,0-.46,1.53c0,.19,0,.27.15.27h6a.26.26,0,0,0,.27-.23,6.36,6.36,0,0,0,.11-1c0-1.79-1-2.6-2.67-2.6A3.58,3.58,0,0,0,571.71,21.25Z"/><path class="cls-4" d="M595.89,8.16c.23,0,.34.16.3.39l-2.41,13.58,6-6.12a1,1,0,0,1,.8-.35h4a.3.3,0,0,1,.31.39l-.62,3.44a.41.41,0,0,1-.42.38h-1.91a.42.42,0,0,0-.34.15l-2.68,2.57,2.71,7.15c.08.15.16.23.31.23h1.57c.23,0,.34.15.31.38l-.62,3.45a.42.42,0,0,1-.42.38h-4.32a.54.54,0,0,1-.54-.38l-2.75-7.66-2.49,2.38-.23,1.22c0,.15,0,.23.2.23h1.18a.29.29,0,0,1,.31.38l-.62,3.45a.42.42,0,0,1-.42.38H585a.29.29,0,0,1-.3-.38l.61-3.45a.41.41,0,0,1,.42-.38h1.34a.29.29,0,0,0,.3-.27l3-17.06c0-.19,0-.27-.19-.27h-1.34a.29.29,0,0,1-.31-.38l.61-3.44a.43.43,0,0,1,.43-.39Z"/><path class="cls-4" d="M617.2,10.08c.23,0,.34.15.3.38l-.88,5c0,.16,0,.23.12.23h2.41c.23,0,.34.16.3.39l-.61,3.44a.45.45,0,0,1-.46.38H616c-.11,0-.19.08-.23.23l-1.41,7.69a5.79,5.79,0,0,0-.16,1.07c0,.84.46,1.11,1.46,1.11h.84c.23,0,.34.15.3.38l-.65,3.56a.41.41,0,0,1-.42.38h-1.91c-3.48,0-4.86-1.3-4.86-4a12,12,0,0,1,.23-2.14l1.49-8.07c0-.15,0-.23-.19-.23h-1.15c-.23,0-.3-.15-.26-.38l.61-3.44a.42.42,0,0,1,.42-.39h1.15a.25.25,0,0,0,.27-.23l.88-5a.44.44,0,0,1,.45-.38Z"/></g></g></svg>