<svg xmlns="http://www.w3.org/2000/svg" viewBox="0 0 575.58 575.58"><defs><style>.cls-1{fill:#fff;}</style></defs><g id="Ebene_2" data-name="Ebene 2"><g id="Ebene_1-2" data-name="Ebene 1"><rect class="cls-1" x="111.4" y="445.61" width="74.27" height="18.57"/><path class="cls-1" d="M543.09,324.92a32.32,32.32,0,0,0-15.5,3.94,32.48,32.48,0,0,0-54.13-12.73,32.44,32.44,0,0,0-37.13-6.63V213.12a60.35,60.35,0,1,0-65,0v111.8h-6.47a49.27,49.27,0,0,0-49.23,49.24v88.9a56.45,56.45,0,0,0,16.65,40.17,38,38,0,0,1,11.2,27.06v45.29h18.57V530.29a56.42,56.42,0,0,0-16.65-40.18,38,38,0,0,1-11.2-27.05v-88.9a30.66,30.66,0,0,1,30.66-30.67h6.47v55.7h18.57V181a13.93,13.93,0,1,1,27.85,0v181h18.57V338.85a13.93,13.93,0,1,1,27.85,0v23.21h18.57V338.85a13.93,13.93,0,1,1,27.85,0v23.21h18.56v-4.64a13.93,13.93,0,1,1,27.85,0V455a38,38,0,0,1-2.73,14.21L542.5,498.65a56.71,56.71,0,0,0-4,21.1v55.83H557V519.75a38,38,0,0,1,2.74-14.2l11.77-29.42A56.54,56.54,0,0,0,575.58,455v-97.6A32.53,32.53,0,0,0,543.09,324.92ZM403.84,148.54A32.53,32.53,0,0,0,371.34,181v7.66a41.78,41.78,0,1,1,65,0V181A32.53,32.53,0,0,0,403.84,148.54Z"/><path class="cls-1" d="M324.92,167.1V148.54H297.07V46.42A46.47,46.47,0,0,0,250.66,0H46.42A46.47,46.47,0,0,0,0,46.42V454.89a46.47,46.47,0,0,0,46.42,46.42H250.66a46.47,46.47,0,0,0,46.41-46.42V167.1ZM46.42,18.57H250.66a27.88,27.88,0,0,1,27.85,27.85V55.7H18.57V46.42A27.88,27.88,0,0,1,46.42,18.57ZM250.66,482.75H46.42a27.89,27.89,0,0,1-27.85-27.86V427H278.51v27.85A27.89,27.89,0,0,1,250.66,482.75Zm27.85-74.27H18.57V74.27H278.51v74.27H259.94V92.84H37.13V343.49H259.94V167.1h18.57ZM157.82,195V167.1h83.55V324.92H55.7V111.4H241.37v37.14H139.25V195Z"/><rect class="cls-1" x="74.27" y="213.52" width="148.54" height="18.57"/><rect class="cls-1" x="74.27" y="250.66" width="148.54" height="18.57"/><rect class="cls-1" x="74.27" y="287.79" width="148.54" height="18.57"/></g></g></svg>