<?xml version="1.0" encoding="utf-8"?>
<!-- Generator: Adobe Illustrator 25.2.0, SVG Export Plug-In . SVG Version: 6.00 Build 0)  -->
<svg version="1.1" id="Ebene_1" xmlns="http://www.w3.org/2000/svg" xmlns:xlink="http://www.w3.org/1999/xlink" x="0px" y="0px"
	 viewBox="0 0 459.7 474.2" style="enable-background:new 0 0 459.7 474.2;" xml:space="preserve">
<style type="text/css">
	.st0{fill:#FFFFFF;}
	.st1{fill:none;}
</style>
<g>
	<g id="Ebene_2_1_">
		<g id="Ebene_1-2">
			<rect x="102.9" y="350.2" class="st0" width="53.4" height="13.4"/>
			<path class="st0" d="M413.2,263.4c-3.9,0-7.7,1-11.1,2.8c-4-12.3-17.1-19-29.4-15c-3.6,1.2-6.9,3.2-9.5,5.9
				c-7-7.1-17.7-9-26.7-4.8V183c20.2-12.9,26.1-39.7,13.2-59.9c-12.9-20.2-39.7-26.1-59.9-13.2c-20.2,12.9-26.1,39.7-13.2,59.9
				c3.3,5.3,7.9,9.8,13.2,13.2v80.4h-4.6c-19.5,0-35.4,15.8-35.4,35.4v63.9c0,10.9,4.3,21.3,11.9,28.9c5.2,5.2,8.1,12.1,8.1,19.5
				v32.6h13.4V411c0-10.9-4.3-21.3-11.9-28.9c-5.2-5.2-8.1-12.1-8.1-19.5v-63.9c0-12.2,9.9-22.1,22.1-22.1l0,0h4.6v40.1h13.4V160
				c-0.2-5.5,4.3-10.1,9.8-10.3c5.5-0.2,10.1,4.3,10.3,9.8c0,0.2,0,0.4,0,0.5v130.1h13.4v-16.6c-0.2-5.5,4.3-10.1,9.8-10.3
				c5.5-0.2,10.1,4.3,10.3,9.8c0,0.2,0,0.4,0,0.5v16.6h13.4v-16.6c-0.2-5.5,4.3-10.1,9.8-10.3c5.5-0.2,10.1,4.3,10.3,9.8
				c0,0.2,0,0.4,0,0.5v16.6h13.3v-3.3c-0.2-5.5,4.3-10.1,9.8-10.3s10.1,4.3,10.3,9.8c0,0.2,0,0.4,0,0.5v70.1c0,3.5-0.6,7-2,10.2
				l-8.5,21.2c-1.9,4.8-2.9,10-2.9,15.2v40.2h13.3v-40.2c0-3.5,0.6-7,2-10.2l8.5-21.2c1.9-4.8,2.9-10,2.9-15.2v-70.1
				C436.5,273.9,426.1,263.5,413.2,263.4z M313,136.7c-12.8,0-23.3,10.4-23.3,23.3v5.5c-10.4-12.9-8.4-31.8,4.5-42.3
				s31.8-8.4,42.3,4.5c8.9,11,8.9,26.8,0,37.7V160C336.4,147.2,326,136.7,313,136.7z"/>
			<path class="st0" d="M256.3,150v-13.3h-20V63.3c0-18.5-14.9-33.4-33.4-33.4H56.2c-18.5,0-33.4,14.9-33.4,33.4v293.6
				c0,18.5,14.9,33.4,33.4,33.4H203c18.5,0,33.4-14.9,33.4-33.4V150H256.3z M56.2,43.2H203c11,0,20,9,20,20v6.7H36.1v-6.7
				C36.1,52.2,45.1,43.3,56.2,43.2z M202.9,376.9H56.2c-11,0-20-9-20-20v-20.1H223v20C223,367.9,214.1,376.9,202.9,376.9z
				 M223,323.5H36.1V83.3h186.8v53.4h-13.4v-40H49.4v180.1h160.1V150h13.4L223,323.5L223,323.5z M136.3,170V150h60.1v113.5H62.8V110
				h133.5v26.7h-73.4V170H136.3z"/>
			<rect x="76.2" y="183.3" class="st0" width="106.8" height="13.4"/>
			<rect x="76.2" y="210" class="st0" width="106.8" height="13.4"/>
			<rect x="76.2" y="236.7" class="st0" width="106.8" height="13.4"/>
		</g>
	</g>
	<rect y="-1.1" class="st1" width="461" height="475"/>
</g>
</svg>
