<?xml version="1.0" encoding="utf-8"?>
<!-- Generator: Adobe Illustrator 25.2.0, SVG Export Plug-In . SVG Version: 6.00 Build 0)  -->
<svg version="1.1" id="Ebene_1" xmlns="http://www.w3.org/2000/svg" xmlns:xlink="http://www.w3.org/1999/xlink" x="0px" y="0px"
	 viewBox="0 0 459.7 474.2" style="enable-background:new 0 0 459.7 474.2;" xml:space="preserve">
<style type="text/css">
	.st0{fill:#FFFFFF;}
</style>
<g id="Ebene_2_1_">
	<g id="Ebene_1-2">
		<rect x="89.3" y="359.9" class="st0" width="59" height="14.8"/>
		<path class="st0" d="M432.3,264c-4.3,0-8.5,1.1-12.3,3.1c-4.4-13.6-18.9-21-32.5-16.6c-4,1.3-7.6,3.5-10.5,6.5
			c-7.7-7.9-19.6-10-29.5-5.3v-76.6c22.3-14.3,28.8-43.9,14.6-66.2c-14.3-22.3-43.9-28.8-66.2-14.6c-22.3,14.3-28.8,43.9-14.6,66.2
			c3.7,5.9,8.7,10.8,14.6,14.6V264h-5.1c-21.6,0-39.1,17.5-39.1,39.1v70.6c0,12,4.7,23.5,13.2,31.9c5.7,5.7,8.9,13.4,8.9,21.5v36
			h14.8v-36c0-12-4.7-23.5-13.2-31.9c-5.7-5.7-8.9-13.4-8.9-21.5v-70.6c0-13.5,10.9-24.4,24.4-24.4c0,0,0,0,0,0h5.1v44.3h14.8V149.7
			c-0.2-6.1,4.7-11.2,10.8-11.4c6.1-0.2,11.2,4.7,11.4,10.8c0,0.2,0,0.4,0,0.6v143.8h14.8v-18.4c-0.2-6.1,4.7-11.2,10.8-11.4
			c6.1-0.2,11.2,4.7,11.4,10.8c0,0.2,0,0.4,0,0.6v18.4h14.8v-18.4c-0.2-6.1,4.7-11.2,10.8-11.4c6.1-0.2,11.2,4.7,11.4,10.8
			c0,0.2,0,0.4,0,0.6v18.4h14.7v-3.7c-0.2-6.1,4.7-11.2,10.8-11.4c6.1-0.2,11.2,4.7,11.4,10.8c0,0.2,0,0.4,0,0.6v77.5
			c0,3.9-0.7,7.7-2.2,11.3l-9.4,23.4c-2.1,5.3-3.2,11-3.2,16.8v44.4h14.7v-44.4c0-3.9,0.7-7.7,2.2-11.3l9.4-23.4
			c2.1-5.3,3.2-11,3.2-16.8v-77.5C458.1,275.6,446.5,264.1,432.3,264z M321.6,123.9c-14.2,0-25.8,11.5-25.8,25.8v6.1
			c-11.5-14.3-9.3-35.2,5-46.7s35.2-9.3,46.7,5c9.8,12.2,9.8,29.6,0,41.7v-6.1C347.4,135.5,335.9,123.9,321.6,123.9z"/>
		<path class="st0" d="M258.9,138.7v-14.7h-22.1V42.8c0-20.4-16.5-36.9-36.9-36.9H37.7C17.3,5.9,0.8,22.4,0.8,42.8v324.5
			c0,20.4,16.5,36.9,36.9,36.9h162.3c20.4,0,36.9-16.5,36.9-36.9V138.7H258.9z M37.7,20.6h162.3c12.2,0,22.1,9.9,22.1,22.1v7.4H15.5
			v-7.4C15.5,30.6,25.4,20.7,37.7,20.6z M199.9,389.4H37.7c-12.2,0-22.1-9.9-22.1-22.1v-22.2h206.5v22.1
			C222.1,379.5,212.2,389.4,199.9,389.4z M222.1,330.4H15.5V64.9h206.5v59h-14.8V79.7h-177v199.1h177V138.7h14.8V330.4z
			 M126.2,160.8v-22.2h66.4V264H45V94.4h147.5v29.5h-81.1v36.9H126.2z"/>
		<rect x="59.8" y="175.5" class="st0" width="118" height="14.8"/>
		<rect x="59.8" y="205" class="st0" width="118" height="14.8"/>
		<rect x="59.8" y="234.5" class="st0" width="118" height="14.8"/>
	</g>
</g>
</svg>
