<?xml version="1.0" encoding="utf-8"?>
<!-- Generator: Adobe Illustrator 25.2.0, SVG Export Plug-In . SVG Version: 6.00 Build 0)  -->
<svg version="1.1" id="Ebene_1" xmlns="http://www.w3.org/2000/svg" xmlns:xlink="http://www.w3.org/1999/xlink" x="0px" y="0px"
	 viewBox="0 0 459.7 474.2" style="enable-background:new 0 0 459.7 474.2;" xml:space="preserve">
<style type="text/css">
	.st0{fill:none;}
	.st1{fill:#FFFFFF;}
</style>
<g>
	<rect x="-1" y="-0.1" class="st0" width="460" height="473"/>
	<g id="Ebene_2_1_">
		<g id="Ebene_1-2">
			<polygon class="st1" points="74.6,260.5 63.9,260.5 63.9,271.7 52.7,271.7 52.7,282.4 63.9,282.4 63.9,293.6 74.6,293.6 
				74.6,282.4 85.8,282.4 85.8,271.7 74.6,271.7 			"/>
			<polygon class="st1" points="420.7,208.5 420.7,197.3 410,197.3 410,208.5 398.8,208.5 398.8,219.2 410,219.2 410,230.4 
				420.7,230.4 420.7,219.2 431.9,219.2 431.9,208.5 			"/>
			<polygon class="st1" points="368.8,260.5 358,260.5 358,271.7 346.8,271.7 346.8,282.4 358,282.4 358,293.6 368.8,293.6 
				368.8,282.4 380,282.4 380,271.7 368.8,271.7 			"/>
			<polygon class="st1" points="53.2,157.5 42,157.5 42,146.3 31.2,146.3 31.2,157.5 20,157.5 20,168.3 31.2,168.3 31.2,179.5 
				42,179.5 42,168.3 53.2,168.3 			"/>
			<rect x="292.8" y="87.1" class="st1" width="64.5" height="10.8"/>
			<rect x="214.6" y="87.1" class="st1" width="64.5" height="10.8"/>
			<rect x="292.8" y="107.4" class="st1" width="64.5" height="10.8"/>
			<rect x="214.6" y="106.5" class="st1" width="64.5" height="10.8"/>
			<rect x="292.8" y="127" class="st1" width="64.5" height="10.8"/>
			<path class="st1" d="M63.9,234.5h38.3v-10.8H74.6v-188h300.7v20.1H190.7v10.8h184.7v157.2h-55.1l1.6,6.7c4.2,17.5,3.9,35.7-1,53
				l-15.7,55.5v105.6h10.8V340.4l15.3-54.1c4.8-16.9,5.7-34.6,2.5-51.8h52.3V25H63.9V234.5z"/>
			<polygon class="st1" points="143.8,234.5 192.5,234.5 225,270.2 257.6,234.5 311.4,234.5 311.4,223.8 252.9,223.8 225,254.3 
				197.3,223.8 143.8,223.8 			"/>
			<polygon class="st1" points="224.5,237.9 276.7,180.8 268.7,173.5 224.5,222 208.7,204.6 200.7,211.8 			"/>
			<path class="st1" d="M88.7,134.3H171V51.9H88.7V134.3z M99.4,62.7h60.8v33L129.8,71L99.4,95.7V62.7z M99.4,109.6l30.4-24.7
				l30.4,24.7v13.9H99.4V109.6z"/>
			<path class="st1" d="M195.5,393h46.8l31.9-37.4l-8.2-7l-28.7,33.6h-95.9c-7.4,0-13.4-6-13.4-13.4v-54l-20.1-4.8
				c-3.2-0.7-5.2-3.9-4.4-7.1c0.1-0.6,0.4-1.2,0.7-1.8l26-41.9v-14.6c0.2-7,0.7-13.9,1.6-20.8h-10.8c-1,6.9-1.5,13.8-1.6,20.8v11.6
				l-24.3,39.3c-4.9,7.8-2.5,18.1,5.4,23c1.5,0.9,3.2,1.6,4.9,2.1l11.8,2.8v45.5c0,13.3,10.8,24.2,24.2,24.2h43.3v56.9h94.4v-10.8
				h-83.6L195.5,393L195.5,393z"/>
			<path class="st1" d="M325.9,209c-1.9-4.3-4-8.5-6.5-12.5l-9.2,5.5c2.2,3.7,4.1,7.5,5.9,11.4L325.9,209z"/>
			<path class="st1" d="M295.2,182.4c3,3.1,5.8,6.3,8.3,9.7l8.6-6.5c-2.8-3.7-5.9-7.3-9.2-10.7L295.2,182.4z"/>
			<path class="st1" d="M124.7,212l10.2,3.4c1.3-4,2.9-8,4.8-11.8l-9.7-4.7C128,203.1,126.2,207.5,124.7,212z"/>
			<path class="st1" d="M190.2,146c-4.5,1.5-8.9,3.3-13.1,5.4l4.8,9.6c3.8-1.9,7.7-3.5,11.7-4.8L190.2,146z"/>
			<path class="st1" d="M153.3,183.2l-8.1-7.1c-3.1,3.6-6,7.3-8.6,11.3l9,5.9C147.9,189.7,150.5,186.4,153.3,183.2z"/>
			<path class="st1" d="M154.4,166.7l7.2,8.1c3.2-2.8,6.5-5.4,10-7.8l-6-9C161.7,160.7,158,163.6,154.4,166.7z"/>
			<path class="st1" d="M242.2,153.6l2.1-10.5c-4.6-0.9-9.3-1.5-14-1.8l-0.7,10.8C233.8,152.3,238,152.8,242.2,153.6z"/>
			<path class="st1" d="M265.6,161.2l4.6-9.7c-4.3-2-8.7-3.7-13.1-5.2l-3.3,10.2C257.8,157.8,261.7,159.4,265.6,161.2z"/>
			<path class="st1" d="M276,166.9c3.6,2.3,7.1,4.7,10.4,7.4l6.8-8.4c-3.7-3-7.5-5.7-11.5-8.2L276,166.9z"/>
			<path class="st1" d="M205,153.3c4.1-0.8,8.3-1.3,12.5-1.5l-0.5-10.8c-4.7,0.2-9.4,0.8-14.1,1.7L205,153.3z"/>
		</g>
	</g>
</g>
</svg>
