<svg xmlns="http://www.w3.org/2000/svg" viewBox="0 0 459.74 474.2"><defs><style>.cls-1{fill:#fff;}</style></defs><g id="Ebene_2" data-name="Ebene 2"><g id="Ebene_1-2" data-name="Ebene 1"><polygon class="cls-1" points="60.99 262.78 48.99 262.78 48.99 275.28 36.49 275.28 36.49 287.28 48.99 287.28 48.99 299.78 60.99 299.78 60.99 287.28 73.49 287.28 73.49 275.28 60.99 275.28 60.99 262.78"/><polygon class="cls-1" points="447.24 204.75 447.24 192.26 435.24 192.26 435.24 204.75 422.74 204.75 422.74 216.75 435.24 216.75 435.24 229.25 447.24 229.25 447.24 216.75 459.74 216.75 459.74 204.75 447.24 204.75"/><polygon class="cls-1" points="389.24 262.78 377.24 262.78 377.24 275.28 364.74 275.28 364.74 287.28 377.24 287.28 377.24 299.78 389.24 299.78 389.24 287.28 401.74 287.28 401.74 275.28 389.24 275.28 389.24 262.78"/><polygon class="cls-1" points="37 147.9 24.5 147.9 24.5 135.4 12.5 135.4 12.5 147.9 0 147.9 0 159.9 12.5 159.9 12.5 172.4 24.5 172.4 24.5 159.9 37 159.9 37 147.9"/><rect class="cls-1" x="304.5" y="69.3" width="72" height="12"/><rect class="cls-1" x="217.19" y="69.3" width="72" height="12"/><rect class="cls-1" x="304.5" y="91.94" width="72" height="12"/><rect class="cls-1" x="217.19" y="90.92" width="72" height="12"/><rect class="cls-1" x="304.5" y="113.79" width="72" height="12"/><path class="cls-1" d="M49,233.8l42.7,0v-12l-30.71,0V12h335.6V34.38H190.5v12H396.59V221.85H335.11l1.82,7.43a116,116,0,0,1-1.14,59.14l-17.56,61.95V468.2h12V352l17.11-60.34a128.29,128.29,0,0,0,2.83-57.85h58.42V0H49Z"/><polygon class="cls-1" points="138.22 233.85 192.53 233.85 228.78 273.71 265.17 233.85 325.17 233.85 325.17 221.85 259.88 221.85 228.8 255.9 197.84 221.85 138.22 221.85 138.22 233.85"/><polygon class="cls-1" points="228.23 237.65 286.47 173.84 277.61 165.75 228.25 219.83 210.57 200.39 201.69 208.46 228.23 237.65"/><path class="cls-1" d="M76.63,121.93h91.88V30.05H76.63Zm12-79.88h67.88V78.93L122.57,51.31,88.63,78.93Zm0,52.35,33.94-27.62L156.51,94.4v15.53H88.63Z"/><path class="cls-1" d="M195.9,410.71h52.26L283.74,369l-9.13-7.78-32,37.5H135.55a15.05,15.05,0,0,1-15-15V323.41l-22.41-5.32A6.62,6.62,0,0,1,94,308.15l29-46.74V245.07a214.08,214.08,0,0,1,1.81-23.22h-12a191.37,191.37,0,0,0-1.81,23.22V258L83.83,301.82a18.62,18.62,0,0,0,11.51,27.94l13.18,3.13v50.78a27.07,27.07,0,0,0,27,27h48.36V474.2H289.2v-12H195.91V410.71Z"/><path class="cls-1" d="M341.41,205.31a127.24,127.24,0,0,0-7.2-14l-10.31,6.13a116.75,116.75,0,0,1,6.53,12.68Z"/><path class="cls-1" d="M307.15,175.63a115.39,115.39,0,0,1,9.31,10.8l9.55-7.26a128.09,128.09,0,0,0-10.26-11.92Z"/><path class="cls-1" d="M116.87,208.69l11.4,3.75a104.31,104.31,0,0,1,5.33-13.13l-10.78-5.26A115.38,115.38,0,0,0,116.87,208.69Z"/><path class="cls-1" d="M190,135.09a112.83,112.83,0,0,0-14.64,6l5.32,10.75a101.74,101.74,0,0,1,13.08-5.36Z"/><path class="cls-1" d="M148.72,176.53l-9.05-7.89a118,118,0,0,0-9.55,12.59l10,6.59A104.43,104.43,0,0,1,148.72,176.53Z"/><path class="cls-1" d="M150.05,158.16l8,9a101.69,101.69,0,0,1,11.2-8.66l-6.67-10A115.29,115.29,0,0,0,150.05,158.16Z"/><path class="cls-1" d="M248,143.51l2.3-11.77a124.88,124.88,0,0,0-15.6-2l-.82,12A114.29,114.29,0,0,1,248,143.51Z"/><path class="cls-1" d="M274.08,152l5.1-10.86a124.57,124.57,0,0,0-14.66-5.77l-3.68,11.42A112.27,112.27,0,0,1,274.08,152Z"/><path class="cls-1" d="M285.75,158.38a113.08,113.08,0,0,1,11.59,8.28l7.57-9.32a127.37,127.37,0,0,0-12.81-9.14Z"/><path class="cls-1" d="M206.52,143.18a102.82,102.82,0,0,1,14-1.66l-.58-12a113.18,113.18,0,0,0-15.71,1.85Z"/></g></g></svg>